<svg width="115" height="82" viewBox="0 0 115 82" fill="none" xmlns="http://www.w3.org/2000/svg">
<path d="M81.2947 34.7417C82.5315 31.8283 84.6257 29.7856 87.5691 28.5893C90.5125 27.393 93.0684 27.4174 96.0119 28.6381C98.9553 29.8589 101.033 31.926 102.245 34.8394C103.449 37.7529 103.432 40.6582 102.6 43.5716L89.3005 74.9604C87.6598 77.8739 85.5656 79.9165 82.6222 81.1129C79.6705 82.301 76.7271 82.2847 73.7754 81.064C70.8237 79.8433 68.7543 77.7762 67.5423 74.8628C66.3385 71.9493 66.759 69.044 67.9875 66.1306L81.2947 34.7417Z" fill="url(#paint0_linear_1_5265)"/>
<path d="M44.5885 66.1386C45.8252 69.0521 45.4377 71.9574 44.234 74.8708C43.0302 77.7843 40.9525 79.8514 38.0008 81.0721C35.0492 82.2928 32.1057 82.3091 29.1541 81.1209C26.2024 79.9328 24.1164 77.8819 22.8797 74.9685L0.940083 22.3798C-0.296649 19.4664 -0.313138 16.5611 0.890615 13.6476C2.09437 10.7342 4.17208 8.66708 7.12375 7.44636C10.0672 6.22564 13.0188 6.20936 15.9705 7.39753C18.9222 8.5857 21.0081 10.6365 22.2449 13.55L44.5885 66.1386Z" fill="url(#paint1_linear_1_5265)"/>
<path d="M89.2838 66.1386C90.5205 69.0521 90.133 71.9574 88.9292 74.8708C87.7255 77.7843 85.6478 79.8514 82.6961 81.0721C79.7527 82.2928 76.801 82.3091 73.8493 81.1209C70.8977 79.9328 68.8117 77.8819 67.575 74.9685L45.6271 22.3798C44.3904 19.4664 44.3739 16.5611 45.5776 13.6476C46.7814 10.7342 48.8591 8.66708 51.8108 7.44636C54.7542 6.22564 57.7058 6.20936 60.6575 7.39753C63.6092 8.5857 65.6951 10.6365 66.9319 13.55L89.2838 66.1386Z" fill="url(#paint2_linear_1_5265)"/>
<path d="M45.6441 13.5581C46.8808 10.6446 48.975 8.60197 51.9184 7.40566C54.8701 6.2175 57.8135 6.23377 60.7652 7.45449C63.7086 8.67521 65.7863 10.7423 66.9983 13.6558C68.2103 16.5692 68.1856 19.4745 66.9488 22.388L44.2012 74.9603C42.9645 77.8738 40.8703 79.9165 37.9269 81.1128C34.9752 82.3009 32.0318 82.2847 29.0801 81.0639C26.1284 79.8432 24.059 77.7761 22.847 74.8627C21.6432 71.9492 22.0637 69.0439 23.2922 66.1305L45.6441 13.5581Z" fill="url(#paint3_linear_1_5265)"/>
<path d="M115 11.6945C115 18.1562 109.698 23.389 103.152 23.389C96.6056 23.389 91.7081 18.1562 91.7081 11.6945C91.7081 5.23282 96.6056 0 103.152 0C109.698 0 115 5.23282 115 11.6945Z" fill="url(#paint4_linear_1_5265)"/>
<defs>
<linearGradient id="paint0_linear_1_5265" x1="89.3378" y1="44.5844" x2="102.678" y2="9.83195" gradientUnits="userSpaceOnUse">
<stop stop-color="#22A2A2"/>
<stop offset="1" stop-color="#74E0C1"/>
</linearGradient>
<linearGradient id="paint1_linear_1_5265" x1="8.38292" y1="20.1878" x2="42.4195" y2="79.4831" gradientUnits="userSpaceOnUse">
<stop stop-color="#22A2A2"/>
<stop offset="1" stop-color="#74E0C1"/>
</linearGradient>
<linearGradient id="paint2_linear_1_5265" x1="41.8086" y1="1.0653" x2="75.8452" y2="60.3606" gradientUnits="userSpaceOnUse">
<stop stop-color="#22A2A2"/>
<stop offset="1" stop-color="#74E0C1"/>
</linearGradient>
<linearGradient id="paint3_linear_1_5265" x1="24.1478" y1="10.7362" x2="59.4499" y2="69.2094" gradientUnits="userSpaceOnUse">
<stop stop-color="#22A2A2"/>
<stop offset="1" stop-color="#74E0C1"/>
</linearGradient>
<linearGradient id="paint4_linear_1_5265" x1="90.6425" y1="43.8839" x2="102.521" y2="12.9395" gradientUnits="userSpaceOnUse">
<stop stop-color="#22A2A2"/>
<stop offset="1" stop-color="#74E0C1"/>
</linearGradient>
</defs>
</svg>
